<?xml version="1.0"?>
<svg width="640" height="480.00000000000006" xmlns="http://www.w3.org/2000/svg" xmlns:svg="http://www.w3.org/2000/svg">
 <!-- Created with SVG-edit - http://svg-edit.googlecode.com/ -->
 <g>
  <title>Layer 1</title>
  <ellipse stroke="#000000" id="svg_8" ry="47.748971" rx="46.641976" cy="252.465029" cx="330.927987" stroke-linecap="null" stroke-linejoin="null" stroke-dasharray="null" stroke-width="5" fill="#ff7f00"/>
  <path transform="rotate(123.055 309.19 238.747)" stroke="#000000" id="svg_4" d="m479.429688,321.629822c6.598633,-12.935455 11.73053,-26.720612 15.090271,-41.149597c13.115967,-49.14769 9.167175,-92.006058 9.167175,-92.006058l-4.502136,28.244919c0,0 -6.470581,-52.302673 -14.373047,-71.852966c-12.144104,-29.955276 -17.525696,-29.719711 -17.566589,-29.668625c7.478149,18.506393 6.808594,29.116409 6.680481,30.712906c-0.169128,-0.214325 -0.291199,-0.430023 -0.378784,-0.634369c-1.805481,-4.351929 -10.972656,-24.415192 -30.640625,-38.629814c-34.467041,-33.304108 -81.875549,-53.879162 -134.205353,-53.899029c-55.905792,0 -106.133087,23.431637 -141.019638,60.740238c-4.414688,-6.20549 -8.02565,-13.753357 -8.363449,-22.090508c0,0 0,0.031197 -0.040771,0.062439c0,-0.143402 -0.040771,-0.276794 -0.040771,-0.410187c0,0 -22.195755,16.734032 -19.796219,61.908363c-4.123489,7.701187 -7.734451,15.73027 -10.722229,24.036072c-5.125229,10.968002 -10.297058,26.902939 -14.583618,50.283234c0,0 1.852066,-5.663483 5.503799,-13.262238c-0.87944,6.472015 -1.42691,13.036621 -1.59581,19.693573c-1.217239,11.348206 -1.636581,25.039444 -0.54747,41.456406c0,0 0.465927,-5.447632 1.892853,-13.712219c11.473526,92.006775 91.840698,163.29483 189.266724,163.29483l0,0c25.643646,0 50.105011,-4.966766 72.382263,-13.906891c50.734039,-18.034607 80.698975,-52.599396 98.392944,-89.21048zm-170.728607,-256.552361c33.663605,0 65.107941,9.124603 91.962738,24.968483c-31.310272,-7.098175 -47.244781,-3.513611 -47.116638,-3.339012c0.168671,0.204285 46.615845,7.905594 54.810669,18.945938c0,0 -19.714874,0 -39.342102,5.500305c-0.885284,0.255432 72.207306,8.899139 87.175415,80.085335c0,0 -8.031372,-16.284088 -17.949982,-19.058243c6.517334,19.314819 4.833954,55.977829 -1.345093,74.207199c-0.798187,2.334381 -1.636871,-10.139267 -13.826477,-15.506195c3.907715,27.344223 -0.256256,70.716568 -19.755524,82.656693c-1.473816,0.942261 12.230743,-42.807648 2.772278,-25.909485c-56.365936,84.244354 -123.36084,34.083313 -150.600342,16.220978c21.858032,5.204224 45.014679,1.444824 58.427643,-7.506683c13.529449,-9.022644 21.560944,-15.596771 28.747925,-14.049866c7.186981,1.566589 11.98053,-5.469299 6.389191,-11.706146c-5.550537,-6.256592 -19.167328,-14.839066 -37.536652,-10.158905c-12.947052,3.307678 -28.99826,17.267334 -53.506256,3.12326c-20.891144,-12.063431 -20.763,-21.884918 -20.763,-28.121689c0,-4.91568 3.529419,-11.807877 10.128143,-13.794434c7.990723,0.828598 14.373962,2.866409 21.141602,6.246368c0.087372,-1.812134 0.087372,-4.230225 0,-6.963348c0.547455,-1.0345 0.209656,-4.178802 -0.628998,-7.998932c-0.500885,-3.850281 -1.345398,-7.813507 -2.649994,-11.429214c0.168915,-0.019897 0.256256,-0.092529 0.297028,-0.277008c1.04834,-4.617645 29.592377,-20.728348 31.689056,-22.273712c2.102509,-1.526901 7.571381,-5.070328 6.936554,-15.873688c-0.209686,-3.554764 -0.797913,-3.943588 -30.722229,-3.84137c-12.609283,0.041107 -19.62735,-12.002426 -21.898773,-16.713791c3.069336,-16.517746 11.892883,-28.316154 26.435791,-36.293671c0.297028,-0.143738 0.209656,-0.286613 -0.081543,-0.359436c2.981964,-1.709785 -34.805054,-0.080536 -51.828979,21.527275c-4.536987,0.635735 -10.797943,-0.644257 -17.821838,-0.644257c-8.782806,0 -15.672745,0.942261 -22.061813,2.508904c-0.71637,0.173126 -1.683167,0.153259 -2.85965,-0.009995c-1.805481,-1.291031 -4.496231,-3.44117 -7.355881,-6.226913c2.184052,-2.41803 4.455475,-4.783585 6.808411,-7.066933c32.236572,-31.429367 76.709625,-50.85788 125.929321,-50.867813z" stroke-linecap="null" stroke-linejoin="null" stroke-dasharray="null" stroke-width="5" fill="#007fff"/>
 </g>
</svg>